<svg id="visual" viewBox="0 0 900 450" width="900" height="450" xmlns="http://www.w3.org/2000/svg" xmlns:xlink="http://www.w3.org/1999/xlink" version="1.1"><rect x="0" y="0" width="900" height="450" fill="#000000"></rect><defs><linearGradient id="grad1_0" x1="50%" y1="0%" x2="100%" y2="100%"><stop offset="10%" stop-color="#000000" stop-opacity="1"></stop><stop offset="90%" stop-color="#000000" stop-opacity="1"></stop></linearGradient></defs><defs><linearGradient id="grad2_0" x1="0%" y1="0%" x2="50%" y2="100%"><stop offset="10%" stop-color="#000000" stop-opacity="1"></stop><stop offset="90%" stop-color="#000000" stop-opacity="1"></stop></linearGradient></defs><g transform="translate(900, 0)"><path d="M0 225C-21.4 226.8 -42.7 228.6 -58.2 217.3C-73.8 206.1 -83.4 181.8 -97 168C-110.6 154.2 -128 150.8 -141.4 141.4C-154.9 132.1 -164.3 116.8 -177.5 102.5C-190.8 88.2 -207.8 74.9 -216.4 58C-224.9 41.1 -225 20.5 -225 0L0 0Z" fill="#FBAE3C"></path></g><g transform="translate(0, 450)"><path d="M0 -225C18.4 -217 36.8 -208.9 54.1 -201.9C71.4 -194.8 87.6 -188.7 105.5 -182.7C123.4 -176.8 143 -170.9 159.1 -159.1C175.2 -147.3 187.8 -129.4 190.5 -110C193.3 -90.6 186.2 -69.6 190.3 -51C194.4 -32.4 209.7 -16.2 225 0L0 0Z" fill="#FBAE3C"></path></g></svg>