<svg id="visual" viewBox="0 0 960 540" width="960" height="540" xmlns="http://www.w3.org/2000/svg" xmlns:xlink="http://www.w3.org/1999/xlink" version="1.1"><path d="M0 152L87 152L87 93L175 93L175 168L262 168L262 212L349 212L349 201L436 201L436 239L524 239L524 195L611 195L611 82L698 82L698 152L785 152L785 104L873 104L873 114L960 114L960 104L960 0L960 0L873 0L873 0L785 0L785 0L698 0L698 0L611 0L611 0L524 0L524 0L436 0L436 0L349 0L349 0L262 0L262 0L175 0L175 0L87 0L87 0L0 0Z" fill="#000000"></path><path d="M0 195L87 195L87 163L175 163L175 212L262 212L262 249L349 249L349 282L436 282L436 287L524 287L524 255L611 255L611 120L698 120L698 185L785 185L785 163L873 163L873 163L960 163L960 195L960 102L960 112L873 112L873 102L785 102L785 150L698 150L698 80L611 80L611 193L524 193L524 237L436 237L436 199L349 199L349 210L262 210L262 166L175 166L175 91L87 91L87 150L0 150Z" fill="#512600"></path><path d="M0 330L87 330L87 384L175 384L175 374L262 374L262 422L349 422L349 384L436 384L436 406L524 406L524 384L611 384L611 336L698 336L698 347L785 347L785 379L873 379L873 330L960 330L960 395L960 193L960 161L873 161L873 161L785 161L785 183L698 183L698 118L611 118L611 253L524 253L524 285L436 285L436 280L349 280L349 247L262 247L262 210L175 210L175 161L87 161L87 193L0 193Z" fill="#865400"></path><path d="M0 433L87 433L87 460L175 460L175 498L262 498L262 487L349 487L349 498L436 498L436 476L524 476L524 482L611 482L611 460L698 460L698 471L785 471L785 498L873 498L873 476L960 476L960 498L960 393L960 328L873 328L873 377L785 377L785 345L698 345L698 334L611 334L611 382L524 382L524 404L436 404L436 382L349 382L349 420L262 420L262 372L175 372L175 382L87 382L87 328L0 328Z" fill="#c28401"></path><path d="M0 541L87 541L87 541L175 541L175 541L262 541L262 541L349 541L349 541L436 541L436 541L524 541L524 541L611 541L611 541L698 541L698 541L785 541L785 541L873 541L873 541L960 541L960 541L960 496L960 474L873 474L873 496L785 496L785 469L698 469L698 458L611 458L611 480L524 480L524 474L436 474L436 496L349 496L349 485L262 485L262 496L175 496L175 458L87 458L87 431L0 431Z" fill="#ffb900"></path></svg>